dataset
version=1
nRows=22
nColumns=39
inDegrees=no
endheader
time	sternoclavicular_r2	sternoclavicular_r3	unrotscap_r3	unrotscap_r2	acromioclavicular_r2	acromioclavicular_r3	acromioclavicular_r1	unrothum_r1	unrothum_r3	unrothum_r2	elv_angle	shoulder_elv	shoulder1_r2	shoulder_rot	elbow_flexion	pro_sup	deviation	flexion	cmc_abduction	cmc_flexion	mp_flexion	ip_flexion	mcp2_flexion	mcp2_abduction	pm2_flexion	md2_flexion	mcp3_flexion	mcp3_abduction	pm3_flexion	md3_flexion	mcp4_flexion	mcp4_abduction	pm4_flexion	md4_flexion	mcp5_flexion	mcp5_abduction	pm5_flexion	md5_flexion
0.000000	-0.021876	-0.302917	0.153835	0.085343	0.063690	0.103999	-0.118880	-0.088927	0.031891	0.112232	0.085916	0.027437	0.146525	0.146525	1.201465	1.103966	0.000000	0.000000	0.000000	0.000000	0.000000	0.000000	0.000000	0.000000	0.000000	0.000000	0.000000	0.000000	0.000000	0.000000	0.000000	0.000000	0.000000	0.000000	0.000000	0.000000	0.000000	0.000000
0.020202	-0.019175	-0.306105	0.152616	0.078472	0.058619	0.095488	-0.122265	-0.089332	0.018550	0.117382	0.086336	0.027437	0.146525	0.146525	1.210019	0.948790	0.000000	0.000000	0.000000	0.000000	0.000000	0.000000	0.000000	0.000000	0.000000	0.000000	0.000000	0.000000	0.000000	0.000000	0.000000	0.000000	0.000000	0.000000	0.000000	0.000000	0.000000	0.000000
0.040404	-0.020413	-0.303810	0.152339	0.083218	0.062326	0.100741	-0.118378	-0.092037	0.031719	0.117885	0.090338	0.027437	0.146525	0.146525	1.216974	1.051994	0.000000	0.000000	0.000000	0.000000	0.000000	0.000000	0.000000	0.000000	0.000000	0.000000	0.000000	0.000000	0.000000	0.000000	0.000000	0.000000	0.000000	0.000000	0.000000	0.000000	0.000000	0.000000
0.060606	-0.020611	-0.303873	0.151110	0.084808	0.063823	0.101461	-0.116174	-0.090034	0.033530	0.119660	0.092906	0.027437	0.146525	0.146525	1.228304	1.058939	0.000000	0.000000	0.000000	0.000000	0.000000	0.000000	0.000000	0.000000	0.000000	0.000000	0.000000	0.000000	0.000000	0.000000	0.000000	0.000000	0.000000	0.000000	0.000000	0.000000	0.000000	0.000000
0.080808	-0.021467	-0.303710	0.150332	0.088325	0.066860	0.104033	-0.113497	-0.086207	0.036944	0.120039	0.095104	0.027437	0.146525	0.146525	1.240154	1.110699	0.000000	0.000000	0.000000	0.000000	0.000000	0.000000	0.000000	0.000000	0.000000	0.000000	0.000000	0.000000	0.000000	0.000000	0.000000	0.000000	0.000000	0.000000	0.000000	0.000000	0.000000	0.000000
0.101010	-0.021673	-0.305293	0.150207	0.089574	0.067923	0.105149	-0.112571	-0.081922	0.035749	0.120347	0.095874	0.027437	0.146525	0.146525	1.254197	1.117860	0.000000	0.000000	0.000000	0.000000	0.000000	0.000000	0.000000	0.000000	0.000000	0.000000	0.000000	0.000000	0.000000	0.000000	0.000000	0.000000	0.000000	0.000000	0.000000	0.000000	0.000000	0.000000
0.121212	-0.022214	-0.306914	0.150634	0.091936	0.069755	0.107977	-0.111448	-0.077908	0.037016	0.119973	0.096755	0.027437	0.146525	0.146525	1.267533	1.151135	0.000000	0.000000	0.000000	0.000000	0.000000	0.000000	0.000000	0.000000	0.000000	0.000000	0.000000	0.000000	0.000000	0.000000	0.000000	0.000000	0.000000	0.000000	0.000000	0.000000	0.000000	0.000000
0.141414	-0.022403	-0.309435	0.150896	0.093898	0.071603	0.108953	-0.111387	-0.073052	0.034943	0.120920	0.098033	0.027437	0.146525	0.146525	1.282866	1.155973	0.000000	0.000000	0.000000	0.000000	0.000000	0.000000	0.000000	0.000000	0.000000	0.000000	0.000000	0.000000	0.000000	0.000000	0.000000	0.000000	0.000000	0.000000	0.000000	0.000000	0.000000	0.000000
0.161616	-0.022935	-0.311563	0.151293	0.097399	0.075066	0.109702	-0.111751	-0.069241	0.034086	0.122886	0.100499	0.027437	0.146525	0.146525	1.301855	1.179243	0.000000	0.000000	0.000000	0.000000	0.000000	0.000000	0.000000	0.000000	0.000000	0.000000	0.000000	0.000000	0.000000	0.000000	0.000000	0.000000	0.000000	0.000000	0.000000	0.000000	0.000000	0.000000
0.181818	-0.023235	-0.313800	0.151635	0.100395	0.078529	0.108082	-0.113607	-0.067409	0.031155	0.126473	0.103466	0.027437	0.146525	0.146525	1.326674	1.182058	0.000000	0.000000	0.000000	0.000000	0.000000	0.000000	0.000000	0.000000	0.000000	0.000000	0.000000	0.000000	0.000000	0.000000	0.000000	0.000000	0.000000	0.000000	0.000000	0.000000	0.000000	0.000000
0.202020	-0.023763	-0.315267	0.151838	0.103979	0.082647	0.106148	-0.115664	-0.067263	0.029643	0.130334	0.106817	0.027437	0.146525	0.146525	1.354402	1.199304	0.000000	0.000000	0.000000	0.000000	0.000000	0.000000	0.000000	0.000000	0.000000	0.000000	0.000000	0.000000	0.000000	0.000000	0.000000	0.000000	0.000000	0.000000	0.000000	0.000000	0.000000	0.000000
0.222222	-0.024114	-0.316798	0.151708	0.107077	0.086584	0.102715	-0.118278	-0.067107	0.026394	0.134770	0.110144	0.027437	0.146525	0.146525	1.382022	1.201150	0.000000	0.000000	0.000000	0.000000	0.000000	0.000000	0.000000	0.000000	0.000000	0.000000	0.000000	0.000000	0.000000	0.000000	0.000000	0.000000	0.000000	0.000000	0.000000	0.000000	0.000000	0.000000
0.242424	-0.024716	-0.317842	0.151323	0.111256	0.091578	0.099341	-0.120383	-0.066732	0.024270	0.139624	0.114216	0.027437	0.146525	0.146525	1.405553	1.214900	0.000000	0.000000	0.000000	0.000000	0.000000	0.000000	0.000000	0.000000	0.000000	0.000000	0.000000	0.000000	0.000000	0.000000	0.000000	0.000000	0.000000	0.000000	0.000000	0.000000	0.000000	0.000000
0.262626	-0.025236	-0.318519	0.150154	0.115479	0.096723	0.095333	-0.121668	-0.065457	0.021713	0.145206	0.118936	0.027437	0.146525	0.146525	1.422808	1.216455	0.000000	0.000000	0.000000	0.000000	0.000000	0.000000	0.000000	0.000000	0.000000	0.000000	0.000000	0.000000	0.000000	0.000000	0.000000	0.000000	0.000000	0.000000	0.000000	0.000000	0.000000	0.000000
0.282828	-0.025987	-0.318081	0.148072	0.120446	0.102383	0.092331	-0.121028	-0.062973	0.021229	0.150679	0.124381	0.027437	0.146525	0.146525	1.431492	1.227934	0.000000	0.000000	0.000000	0.000000	0.000000	0.000000	0.000000	0.000000	0.000000	0.000000	0.000000	0.000000	0.000000	0.000000	0.000000	0.000000	0.000000	0.000000	0.000000	0.000000	0.000000	0.000000
0.303030	-0.026639	-0.317042	0.145250	0.125036	0.107636	0.089369	-0.119271	-0.059078	0.020374	0.156057	0.129865	0.027437	0.146525	0.146525	1.431857	1.229361	0.000000	0.000000	0.000000	0.000000	0.000000	0.000000	0.000000	0.000000	0.000000	0.000000	0.000000	0.000000	0.000000	0.000000	0.000000	0.000000	0.000000	0.000000	0.000000	0.000000	0.000000	0.000000
0.323232	-0.027351	-0.315514	0.142521	0.129500	0.112558	0.087294	-0.116925	-0.054893	0.020332	0.160518	0.134798	0.027437	0.146525	0.146525	1.425727	1.239051	0.000000	0.000000	0.000000	0.000000	0.000000	0.000000	0.000000	0.000000	0.000000	0.000000	0.000000	0.000000	0.000000	0.000000	0.000000	0.000000	0.000000	0.000000	0.000000	0.000000	0.000000	0.000000
0.343434	-0.027843	-0.314247	0.140233	0.132753	0.116116	0.085896	-0.114735	-0.050825	0.019926	0.163891	0.138558	0.027437	0.146525	0.146525	1.418016	1.240197	0.000000	0.000000	0.000000	0.000000	0.000000	0.000000	0.000000	0.000000	0.000000	0.000000	0.000000	0.000000	0.000000	0.000000	0.000000	0.000000	0.000000	0.000000	0.000000	0.000000	0.000000	0.000000
0.363636	-0.028242	-0.313113	0.138550	0.135242	0.118565	0.086133	-0.112438	-0.047371	0.020922	0.165654	0.141120	0.027437	0.146525	0.146525	1.412262	1.248755	0.000000	0.000000	0.000000	0.000000	0.000000	0.000000	0.000000	0.000000	0.000000	0.000000	0.000000	0.000000	0.000000	0.000000	0.000000	0.000000	0.000000	0.000000	0.000000	0.000000	0.000000	0.000000
0.383838	-0.028218	-0.312562	0.137664	0.135993	0.119087	0.087195	-0.110702	-0.045467	0.022200	0.165869	0.141989	0.027437	0.146525	0.146525	1.411385	1.251643	0.000000	0.000000	0.000000	0.000000	0.000000	0.000000	0.000000	0.000000	0.000000	0.000000	0.000000	0.000000	0.000000	0.000000	0.000000	0.000000	0.000000	0.000000	0.000000	0.000000	0.000000	0.000000
0.404040	-0.028046	-0.312304	0.137707	0.135800	0.118366	0.089636	-0.109258	-0.045228	0.025082	0.164576	0.141604	0.027437	0.146525	0.146525	1.416225	1.264086	0.000000	0.000000	0.000000	0.000000	0.000000	0.000000	0.000000	0.000000	0.000000	0.000000	0.000000	0.000000	0.000000	0.000000	0.000000	0.000000	0.000000	0.000000	0.000000	0.000000	0.000000	0.000000
0.424242	-0.027799	-0.312224	0.137966	0.135065	0.117102	0.092089	-0.108020	-0.044952	0.027460	0.162938	0.140759	0.027437	0.146525	0.146525	1.427212	1.272463	0.000000	0.000000	0.000000	0.000000	0.000000	0.000000	0.000000	0.000000	0.000000	0.000000	0.000000	0.000000	0.000000	0.000000	0.000000	0.000000	0.000000	0.000000	0.000000	0.000000	0.000000	0.000000
